<mxfile host="65bd71144e">
    <diagram id="t8sDMgh_aMs5CH0mUNSJ" name="Page-1">
        <mxGraphModel dx="1909" dy="1023" grid="1" gridSize="10" guides="1" tooltips="1" connect="1" arrows="1" fold="1" page="0" pageScale="1" pageWidth="1100" pageHeight="850" math="0" shadow="0">
            <root>
                <mxCell id="0"/>
                <mxCell id="1" parent="0"/>
                <mxCell id="7" style="edgeStyle=none;html=1;endArrow=none;endFill=0;" edge="1" parent="1" source="2" target="6">
                    <mxGeometry relative="1" as="geometry"/>
                </mxCell>
                <mxCell id="9" style="edgeStyle=none;html=1;endArrow=none;endFill=0;" edge="1" parent="1" source="2" target="8">
                    <mxGeometry relative="1" as="geometry"/>
                </mxCell>
                <mxCell id="11" style="edgeStyle=none;html=1;endArrow=none;endFill=0;" edge="1" parent="1" source="2" target="10">
                    <mxGeometry relative="1" as="geometry"/>
                </mxCell>
                <mxCell id="13" style="edgeStyle=none;html=1;endArrow=none;endFill=0;" edge="1" parent="1" source="2" target="12">
                    <mxGeometry relative="1" as="geometry"/>
                </mxCell>
                <mxCell id="2" value="&lt;p style=&quot;margin:0px;margin-top:4px;text-align:center;text-decoration:underline;&quot;&gt;&lt;b&gt;cli1:Cliente&lt;/b&gt;&lt;/p&gt;&lt;hr&gt;&lt;p style=&quot;margin:0px;margin-left:8px;&quot;&gt;id = 1&lt;br&gt;nome = Maria Silva&lt;br&gt;email = maria@gmail.com&lt;/p&gt;&lt;p style=&quot;margin:0px;margin-left:8px;&quot;&gt;cpfOuCnpj = 36378912377&lt;/p&gt;&lt;p style=&quot;margin:0px;margin-left:8px;&quot;&gt;tipo = PESSOAFISICA&lt;/p&gt;" style="verticalAlign=top;align=left;overflow=fill;fontSize=12;fontFamily=Helvetica;html=1;" vertex="1" parent="1">
                    <mxGeometry x="640" y="60" width="160" height="110" as="geometry"/>
                </mxCell>
                <mxCell id="16" style="edgeStyle=none;html=1;endArrow=none;endFill=0;" edge="1" parent="1" source="3" target="14">
                    <mxGeometry relative="1" as="geometry"/>
                </mxCell>
                <mxCell id="33" style="edgeStyle=none;html=1;endArrow=none;endFill=0;" edge="1" parent="1" source="3" target="31">
                    <mxGeometry relative="1" as="geometry"/>
                </mxCell>
                <mxCell id="3" value="&lt;p style=&quot;margin:0px;margin-top:4px;text-align:center;text-decoration:underline;&quot;&gt;&lt;b&gt;p1:Produto&lt;/b&gt;&lt;/p&gt;&lt;hr&gt;&lt;p style=&quot;margin:0px;margin-left:8px;&quot;&gt;id = 1&lt;br&gt;nome = Computador&lt;br&gt;preco = 2000.00&lt;/p&gt;" style="verticalAlign=top;align=left;overflow=fill;fontSize=12;fontFamily=Helvetica;html=1;" vertex="1" parent="1">
                    <mxGeometry x="-150" y="30" width="160" height="90" as="geometry"/>
                </mxCell>
                <mxCell id="17" style="edgeStyle=none;html=1;endArrow=none;endFill=0;" edge="1" parent="1" source="4" target="14">
                    <mxGeometry relative="1" as="geometry"/>
                </mxCell>
                <mxCell id="18" style="edgeStyle=none;html=1;endArrow=none;endFill=0;" edge="1" parent="1" source="4" target="15">
                    <mxGeometry relative="1" as="geometry"/>
                </mxCell>
                <mxCell id="4" value="&lt;p style=&quot;margin:0px;margin-top:4px;text-align:center;text-decoration:underline;&quot;&gt;&lt;b&gt;p2:Produto&lt;/b&gt;&lt;/p&gt;&lt;hr&gt;&lt;p style=&quot;margin:0px;margin-left:8px;&quot;&gt;id = 2&lt;br&gt;nome = Impressora&lt;br&gt;preco = 800.00&lt;/p&gt;" style="verticalAlign=top;align=left;overflow=fill;fontSize=12;fontFamily=Helvetica;html=1;" vertex="1" parent="1">
                    <mxGeometry x="-150" y="140" width="160" height="90" as="geometry"/>
                </mxCell>
                <mxCell id="19" style="edgeStyle=none;html=1;endArrow=none;endFill=0;" edge="1" parent="1" source="5" target="14">
                    <mxGeometry relative="1" as="geometry"/>
                </mxCell>
                <mxCell id="5" value="&lt;p style=&quot;margin:0px;margin-top:4px;text-align:center;text-decoration:underline;&quot;&gt;&lt;b&gt;p3:Produto&lt;/b&gt;&lt;/p&gt;&lt;hr&gt;&lt;p style=&quot;margin:0px;margin-left:8px;&quot;&gt;id = 3&lt;br&gt;nome = Mouse&lt;br&gt;preco = 80.00&lt;/p&gt;" style="verticalAlign=top;align=left;overflow=fill;fontSize=12;fontFamily=Helvetica;html=1;" vertex="1" parent="1">
                    <mxGeometry x="-150" y="250" width="160" height="90" as="geometry"/>
                </mxCell>
                <mxCell id="6" value="&lt;p style=&quot;margin:0px;margin-top:4px;text-align:center;text-decoration:underline;&quot;&gt;&lt;b&gt;&amp;lt;&amp;lt;week&amp;gt;&amp;gt;&lt;br&gt;t1:Telefone&lt;/b&gt;&lt;/p&gt;&lt;hr&gt;&lt;p style=&quot;margin:0px;margin-left:8px;&quot;&gt;numero = 27363323&lt;br&gt;&lt;/p&gt;" style="verticalAlign=top;align=left;overflow=fill;fontSize=12;fontFamily=Helvetica;html=1;" vertex="1" parent="1">
                    <mxGeometry x="630" y="300" width="160" height="60" as="geometry"/>
                </mxCell>
                <mxCell id="23" style="edgeStyle=none;html=1;endArrow=none;endFill=0;" edge="1" parent="1" source="8" target="20">
                    <mxGeometry relative="1" as="geometry"/>
                </mxCell>
                <mxCell id="8" value="&lt;p style=&quot;margin:0px;margin-top:4px;text-align:center;text-decoration:underline;&quot;&gt;&lt;b&gt;e1:Endereco&lt;/b&gt;&lt;/p&gt;&lt;hr&gt;&lt;p style=&quot;margin:0px;margin-left:8px;&quot;&gt;id = 1&lt;/p&gt;&lt;p style=&quot;margin:0px;margin-left:8px;&quot;&gt;logradouro = Rua Flores&lt;/p&gt;&lt;p style=&quot;margin:0px;margin-left:8px;&quot;&gt;numero = 300&lt;/p&gt;&lt;p style=&quot;margin:0px;margin-left:8px;&quot;&gt;complemento = Apto 203&lt;/p&gt;&lt;p style=&quot;margin:0px;margin-left:8px;&quot;&gt;bairro = Jardim&lt;/p&gt;&lt;p style=&quot;margin:0px;margin-left:8px;&quot;&gt;cep = 38220834&lt;/p&gt;" style="verticalAlign=top;align=left;overflow=fill;fontSize=12;fontFamily=Helvetica;html=1;" vertex="1" parent="1">
                    <mxGeometry x="870" y="55" width="160" height="120" as="geometry"/>
                </mxCell>
                <mxCell id="24" style="edgeStyle=none;html=1;endArrow=none;endFill=0;" edge="1" parent="1" source="10" target="20">
                    <mxGeometry relative="1" as="geometry"/>
                </mxCell>
                <mxCell id="10" value="&lt;p style=&quot;margin:0px;margin-top:4px;text-align:center;text-decoration:underline;&quot;&gt;&lt;b&gt;e2:Endereco&lt;/b&gt;&lt;/p&gt;&lt;hr&gt;&lt;p style=&quot;margin:0px;margin-left:8px;&quot;&gt;id = 2&lt;/p&gt;&lt;p style=&quot;margin:0px;margin-left:8px;&quot;&gt;logradouro = Avenida Matos&lt;/p&gt;&lt;p style=&quot;margin:0px;margin-left:8px;&quot;&gt;numero = 105&lt;/p&gt;&lt;p style=&quot;margin:0px;margin-left:8px;&quot;&gt;complemento = Sala 800&lt;/p&gt;&lt;p style=&quot;margin:0px;margin-left:8px;&quot;&gt;bairro = Centro&lt;/p&gt;&lt;p style=&quot;margin:0px;margin-left:8px;&quot;&gt;cep = 38777012&lt;/p&gt;" style="verticalAlign=top;align=left;overflow=fill;fontSize=12;fontFamily=Helvetica;html=1;" vertex="1" parent="1">
                    <mxGeometry x="870" y="200" width="160" height="120" as="geometry"/>
                </mxCell>
                <mxCell id="12" value="&lt;p style=&quot;margin:0px;margin-top:4px;text-align:center;text-decoration:underline;&quot;&gt;&lt;b&gt;&amp;lt;&amp;lt;week&amp;gt;&amp;gt;&lt;br&gt;t2:Telefone&lt;/b&gt;&lt;/p&gt;&lt;hr&gt;&lt;p style=&quot;margin:0px;margin-left:8px;&quot;&gt;numero = 93838393&lt;br&gt;&lt;/p&gt;" style="verticalAlign=top;align=left;overflow=fill;fontSize=12;fontFamily=Helvetica;html=1;" vertex="1" parent="1">
                    <mxGeometry x="810" y="380" width="160" height="60" as="geometry"/>
                </mxCell>
                <mxCell id="14" value="&lt;p style=&quot;margin:0px;margin-top:4px;text-align:center;text-decoration:underline;&quot;&gt;&lt;b&gt;cat1:Categoria&lt;/b&gt;&lt;/p&gt;&lt;hr&gt;&lt;p style=&quot;margin:0px;margin-left:8px;&quot;&gt;id = 1&lt;/p&gt;&lt;p style=&quot;margin:0px;margin-left:8px;&quot;&gt;nome = Informatica&lt;/p&gt;" style="verticalAlign=top;align=left;overflow=fill;fontSize=12;fontFamily=Helvetica;html=1;" vertex="1" parent="1">
                    <mxGeometry x="-420" y="120" width="160" height="70" as="geometry"/>
                </mxCell>
                <mxCell id="15" value="&lt;p style=&quot;margin:0px;margin-top:4px;text-align:center;text-decoration:underline;&quot;&gt;&lt;b&gt;cat2:Categoria&lt;/b&gt;&lt;/p&gt;&lt;hr&gt;&lt;p style=&quot;margin:0px;margin-left:8px;&quot;&gt;id = 2&lt;/p&gt;&lt;p style=&quot;margin:0px;margin-left:8px;&quot;&gt;nome = Escritorio&lt;/p&gt;" style="verticalAlign=top;align=left;overflow=fill;fontSize=12;fontFamily=Helvetica;html=1;" vertex="1" parent="1">
                    <mxGeometry x="-420" y="215" width="160" height="70" as="geometry"/>
                </mxCell>
                <mxCell id="22" style="edgeStyle=none;html=1;endArrow=none;endFill=0;" edge="1" parent="1" source="20" target="21">
                    <mxGeometry relative="1" as="geometry"/>
                </mxCell>
                <mxCell id="20" value="&lt;p style=&quot;margin:0px;margin-top:4px;text-align:center;text-decoration:underline;&quot;&gt;&lt;b&gt;c1:Cidade&lt;/b&gt;&lt;/p&gt;&lt;hr&gt;&lt;p style=&quot;margin:0px;margin-left:8px;&quot;&gt;id = 1&lt;br&gt;nome = UberlÃ¢ndia&lt;br&gt;&lt;/p&gt;" style="verticalAlign=top;align=left;overflow=fill;fontSize=12;fontFamily=Helvetica;html=1;" vertex="1" parent="1">
                    <mxGeometry x="1140" y="100" width="160" height="70" as="geometry"/>
                </mxCell>
                <mxCell id="21" value="&lt;p style=&quot;margin:0px;margin-top:4px;text-align:center;text-decoration:underline;&quot;&gt;&lt;b&gt;es1:Estado&lt;/b&gt;&lt;/p&gt;&lt;hr&gt;&lt;p style=&quot;margin:0px;margin-left:8px;&quot;&gt;id = 1&lt;br&gt;nome = Minas Gerais&lt;br&gt;&lt;/p&gt;" style="verticalAlign=top;align=left;overflow=fill;fontSize=12;fontFamily=Helvetica;html=1;" vertex="1" parent="1">
                    <mxGeometry x="1140" y="225" width="160" height="70" as="geometry"/>
                </mxCell>
                <mxCell id="26" style="edgeStyle=none;html=1;endArrow=none;endFill=0;" edge="1" parent="1" source="25" target="2">
                    <mxGeometry relative="1" as="geometry"/>
                </mxCell>
                <mxCell id="27" style="edgeStyle=none;html=1;endArrow=none;endFill=0;" edge="1" parent="1" source="25" target="8">
                    <mxGeometry relative="1" as="geometry">
                        <Array as="points">
                            <mxPoint x="680" y="-50"/>
                        </Array>
                    </mxGeometry>
                </mxCell>
                <mxCell id="32" style="edgeStyle=none;html=1;endArrow=none;endFill=0;" edge="1" parent="1" source="25" target="31">
                    <mxGeometry relative="1" as="geometry"/>
                </mxCell>
                <mxCell id="41" style="edgeStyle=none;html=1;endArrow=none;endFill=0;" edge="1" parent="1" source="25" target="40">
                    <mxGeometry relative="1" as="geometry"/>
                </mxCell>
                <mxCell id="25" value="&lt;p style=&quot;margin:0px;margin-top:4px;text-align:center;text-decoration:underline;&quot;&gt;&lt;b&gt;ped1:Pedido&lt;/b&gt;&lt;/p&gt;&lt;hr&gt;&lt;p style=&quot;margin:0px;margin-left:8px;&quot;&gt;id = 1&lt;/p&gt;&lt;p style=&quot;margin:0px;margin-left:8px;&quot;&gt;instante = 30/09/2017 10:32&lt;/p&gt;" style="verticalAlign=top;align=left;overflow=fill;fontSize=12;fontFamily=Helvetica;html=1;" vertex="1" parent="1">
                    <mxGeometry x="370" y="-20" width="180" height="70" as="geometry"/>
                </mxCell>
                <mxCell id="29" style="edgeStyle=none;html=1;endArrow=none;endFill=0;" edge="1" parent="1" source="28" target="2">
                    <mxGeometry relative="1" as="geometry"/>
                </mxCell>
                <mxCell id="30" style="edgeStyle=none;html=1;endArrow=none;endFill=0;" edge="1" parent="1" source="28" target="10">
                    <mxGeometry relative="1" as="geometry"/>
                </mxCell>
                <mxCell id="28" value="&lt;p style=&quot;margin:0px;margin-top:4px;text-align:center;text-decoration:underline;&quot;&gt;&lt;b&gt;ped2:Pedido&lt;/b&gt;&lt;/p&gt;&lt;hr&gt;&lt;p style=&quot;margin:0px;margin-left:8px;&quot;&gt;id = 2&lt;/p&gt;&lt;p style=&quot;margin:0px;margin-left:8px;&quot;&gt;instante = 10/10/2017 19:35&lt;/p&gt;" style="verticalAlign=top;align=left;overflow=fill;fontSize=12;fontFamily=Helvetica;html=1;" vertex="1" parent="1">
                    <mxGeometry x="370" y="130" width="170" height="70" as="geometry"/>
                </mxCell>
                <mxCell id="31" value="&lt;p style=&quot;margin:0px;margin-top:4px;text-align:center;text-decoration:underline;&quot;&gt;&lt;b&gt;ip1:ItemPedido&lt;/b&gt;&lt;/p&gt;&lt;hr&gt;&lt;p style=&quot;margin:0px;margin-left:8px;&quot;&gt;desconto= 0.00&lt;br&gt;quantidade = 1&lt;br&gt;preco = 2000.00&lt;/p&gt;" style="verticalAlign=top;align=left;overflow=fill;fontSize=12;fontFamily=Helvetica;html=1;" vertex="1" parent="1">
                    <mxGeometry x="100" y="-40" width="160" height="90" as="geometry"/>
                </mxCell>
                <mxCell id="35" style="edgeStyle=none;html=1;endArrow=none;endFill=0;" edge="1" parent="1" source="34" target="5">
                    <mxGeometry relative="1" as="geometry"/>
                </mxCell>
                <mxCell id="36" style="edgeStyle=none;html=1;endArrow=none;endFill=0;" edge="1" parent="1" source="34" target="25">
                    <mxGeometry relative="1" as="geometry"/>
                </mxCell>
                <mxCell id="34" value="&lt;p style=&quot;margin:0px;margin-top:4px;text-align:center;text-decoration:underline;&quot;&gt;&lt;b&gt;ip2:ItemPedido&lt;/b&gt;&lt;/p&gt;&lt;hr&gt;&lt;p style=&quot;margin:0px;margin-left:8px;&quot;&gt;desconto= 0.00&lt;br&gt;quantidade = 2&lt;br&gt;preco = 80.00&lt;/p&gt;" style="verticalAlign=top;align=left;overflow=fill;fontSize=12;fontFamily=Helvetica;html=1;" vertex="1" parent="1">
                    <mxGeometry x="100" y="85" width="160" height="90" as="geometry"/>
                </mxCell>
                <mxCell id="38" style="edgeStyle=none;html=1;endArrow=none;endFill=0;" edge="1" parent="1" source="37" target="28">
                    <mxGeometry relative="1" as="geometry"/>
                </mxCell>
                <mxCell id="39" style="edgeStyle=none;html=1;endArrow=none;endFill=0;" edge="1" parent="1" source="37" target="5">
                    <mxGeometry relative="1" as="geometry"/>
                </mxCell>
                <mxCell id="37" value="&lt;p style=&quot;margin:0px;margin-top:4px;text-align:center;text-decoration:underline;&quot;&gt;&lt;b&gt;ip3:ItemPedido&lt;/b&gt;&lt;/p&gt;&lt;hr&gt;&lt;p style=&quot;margin:0px;margin-left:8px;&quot;&gt;desconto= 100.00&lt;br&gt;quantidade = 1&lt;br&gt;preco = 800.00&lt;/p&gt;" style="verticalAlign=top;align=left;overflow=fill;fontSize=12;fontFamily=Helvetica;html=1;" vertex="1" parent="1">
                    <mxGeometry x="100" y="240" width="160" height="90" as="geometry"/>
                </mxCell>
                <mxCell id="40" value="&lt;p style=&quot;margin:0px;margin-top:4px;text-align:center;text-decoration:underline;&quot;&gt;&lt;b&gt;pagto1:PagamentoComCartao&lt;/b&gt;&lt;/p&gt;&lt;hr&gt;&lt;p style=&quot;margin:0px;margin-left:8px;&quot;&gt;id = 1&lt;br&gt;estado = QUITADO&lt;br&gt;numeroDeParcelas = 6&lt;/p&gt;" style="verticalAlign=top;align=left;overflow=fill;fontSize=12;fontFamily=Helvetica;html=1;" vertex="1" parent="1">
                    <mxGeometry x="330" y="-230" width="190" height="90" as="geometry"/>
                </mxCell>
                <mxCell id="42" value="&lt;p style=&quot;margin:0px;margin-top:4px;text-align:center;text-decoration:underline;&quot;&gt;&lt;b&gt;pagto2:PagamentoComBoleto&lt;/b&gt;&lt;/p&gt;&lt;hr&gt;&lt;p style=&quot;margin:0px;margin-left:8px;&quot;&gt;id = 2&lt;br&gt;estado = PENDENTE&lt;br&gt;dataVencimento = 20/10/2017&lt;/p&gt;&lt;p style=&quot;margin:0px;margin-left:8px;&quot;&gt;dataPagamento = null&lt;/p&gt;" style="verticalAlign=top;align=left;overflow=fill;fontSize=12;fontFamily=Helvetica;html=1;" vertex="1" parent="1">
                    <mxGeometry x="340" y="320" width="180" height="100" as="geometry"/>
                </mxCell>
            </root>
        </mxGraphModel>
    </diagram>
</mxfile>